<mxfile host="app.diagrams.net" agent="Mozilla/5.0 (Windows NT 10.0; Win64; x64) AppleWebKit/537.36 (KHTML, like Gecko) Chrome/131.0.0.0 Safari/537.36" version="26.0.6">
  <diagram name="Page-1" id="p46INnPqUS4NNhFLLxHK">
    <mxGraphModel dx="1434" dy="728" grid="1" gridSize="10" guides="1" tooltips="1" connect="1" arrows="1" fold="1" page="1" pageScale="1" pageWidth="850" pageHeight="1100" math="0" shadow="0">
      <root>
        <mxCell id="0" />
        <mxCell id="1" parent="0" />
        <mxCell id="edKd6S3Bh1CEA_6oNVMS-4" style="edgeStyle=orthogonalEdgeStyle;rounded=0;orthogonalLoop=1;jettySize=auto;html=1;exitX=1;exitY=0.5;exitDx=0;exitDy=0;" edge="1" parent="1" source="edKd6S3Bh1CEA_6oNVMS-1" target="edKd6S3Bh1CEA_6oNVMS-3">
          <mxGeometry relative="1" as="geometry" />
        </mxCell>
        <mxCell id="edKd6S3Bh1CEA_6oNVMS-1" value="Harvard Atlas dataset download" style="whiteSpace=wrap;html=1;aspect=fixed;" vertex="1" parent="1">
          <mxGeometry x="40" y="317.26" width="80" height="80" as="geometry" />
        </mxCell>
        <mxCell id="edKd6S3Bh1CEA_6oNVMS-6" value="" style="rounded=0;whiteSpace=wrap;html=1;" vertex="1" parent="1">
          <mxGeometry x="245" y="120" width="495" height="370" as="geometry" />
        </mxCell>
        <mxCell id="edKd6S3Bh1CEA_6oNVMS-2" value="MS Fabric&#39;s OneLake" style="shape=image;verticalLabelPosition=bottom;verticalAlign=top;imageAspect=0;aspect=fixed;image=data:image/svg+xml,PHN2ZyB4bWxucz0iaHR0cDovL3d3dy53My5vcmcvMjAwMC9zdmciIHZpZXdCb3g9IjAgMCA0OCA0OSIgZmlsbD0iY3VycmVudENvbG9yIiBoZWlnaHQ9IjQ5IiB3aWR0aD0iNDgiPiYjeGE7ICA8bWFzayBzdHlsZT0ibWFzay10eXBlOmx1bWluYW5jZSIgbWFza1VuaXRzPSJ1c2VyU3BhY2VPblVzZSIgeT0iNCIgeD0iNCIgaGVpZ2h0PSI0MSIgd2lkdGg9IjQwIiBpZD0iYSI+JiN4YTsgICAgPHBhdGggZD0iTTQzLjQ4MSA0LjVINC41MnYzOS45ODVoMzguOTZWNC41WiIgZmlsbD0iI2ZmZiIvPiYjeGE7ICA8L21hc2s+JiN4YTsgIDxnIG1hc2s9InVybCgjYSkiPiYjeGE7ICAgIDxwYXRoIGQ9Ik0yMi4yMSAzMy4wNDFjNS40ODYtMy4xNjggNy4yOTMtMTAuMzEyIDQuMDMzLTE1Ljk1Ny0zLjI2LTUuNjQ2LTEwLjM1LTcuNjU0LTE1LjgzNi00LjQ4NkM0LjkyIDE1Ljc2NiAzLjExNCAyMi45MSA2LjM3MyAyOC41NTZjMy4yNiA1LjY0NSAxMC4zNSA3LjY1MyAxNS44MzYgNC40ODVaIiBmaWxsPSJ1cmwoI2IpIi8+JiN4YTsgICAgPHBhdGggZD0iTTI5LjM3MSAxNy4yMTVjMi44NDktMi44NSAyLjc4LTcuNTM2LS4xNTItMTAuNDY4QzI2LjI4NyAzLjgxNiAyMS42IDMuNzUgMTguNzUxIDYuNnMtMi43OCA3LjUzNy4xNTIgMTAuNDY4YzIuOTMzIDIuOTMyIDcuNjIgMi45OTggMTAuNDY4LjE0OFoiIGZpbGw9InVybCgjYykiLz4mI3hhOyAgICA8cGF0aCBkPSJNMjYuMjk5IDQzLjcyYzkuNDg3IDAgMTcuMTc4LTcuNjkxIDE3LjE3OC0xNy4xNzlTMzUuNzg3IDkuMzYyIDI2LjMgOS4zNjIgOS4xMiAxNy4wNTMgOS4xMiAyNi41NDEgMTYuODExIDQzLjcyIDI2LjMgNDMuNzJaIiBmaWxsPSJ1cmwoI2QpIi8+JiN4YTsgICAgPHBhdGggY2xpcC1ydWxlPSJldmVub2RkIiBkPSJNMTkuNTY5IDUuODg3Yy0xMC4wODUgNi4yMy0xMy42MSAxOS4zNS03LjgxNSAyOS44NDUuMzkuNzEuODE1IDEuMzkyIDEuMjc0IDIuMDM5bC40NS4wNjkgOS45NjYgMy4zMjcgOS40NjgtNi4zNDNjLTEuNTg1LjA1LTguMTgtMy42OTMtMTIuNDktMTEuODcyLTUuNC0xMC4yNDgtMy4xNzMtMTQuOTgyLS44NDMtMTcuMDY1aC0uMDFaIiBmaWxsLXJ1bGU9ImV2ZW5vZGQiIGZpbGw9InVybCgjZSkiLz4mI3hhOyAgICA8cGF0aCBjbGlwLXJ1bGU9ImV2ZW5vZGQiIGQ9Ik0xOS41NjkgNS44ODdjLTEwLjA4NSA2LjIzLTEzLjYxIDE5LjM1LTcuODE1IDI5Ljg0NS4zOS43MS44MTUgMS4zOTIgMS4yNzQgMi4wMzlsLjQ1LjA2OSA5Ljk2NiAzLjMyNyA5LjQ2OC02LjM0M2MtMS41ODUuMDUtOC4xOC0zLjY5My0xMi40OS0xMS44NzItNS40LTEwLjI0OC0zLjE3My0xNC45ODItLjg0My0xNy4wNjVoLS4wMVoiIGZpbGwtcnVsZT0iZXZlbm9kZCIgZmlsbC1vcGFjaXR5PSIuMiIgZmlsbD0idXJsKCNmKSIvPiYjeGE7ICAgIDxwYXRoIGNsaXAtcnVsZT0iZXZlbm9kZCIgZD0iTTM5LjM2NCAzNy42OTdhMTcuMjQgMTcuMjQgMCAwIDAgMy42MzgtNy4xMDljLTEuNzA4LTQuODc3LTguNTgtNi4yNDktMTIuMzQtMi40MzMtMi44ODkgMi45MjctNS44OSA1LjM4Ni04LjE0NiA1LjgyNUM5LjQ2OSAzNi41NDIgMy45MTkgMjUuNzg3IDQuODczIDIwLjg0YTE5LjgxIDE5LjgxIDAgMCAwIC4wNSA3LjczYzIuMTk2IDEwLjc2IDEyLjY5NiAxNy43IDIzLjQ1NyAxNS41MDVhMTkuODE0IDE5LjgxNCAwIDAgMCA4LjcyNy00LjE4MXMuMDQtLjAzLjA1NC0uMDQ1YTE5Ljc2IDE5Ljc2IDAgMCAwIDIuMjAyLTIuMTU3di4wMDVaIiBmaWxsLXJ1bGU9ImV2ZW5vZGQiIGZpbGw9InVybCgjZykiLz4mI3hhOyAgPC9nPiYjeGE7ICA8ZGVmcz4mI3hhOyAgICA8cmFkaWFsR3JhZGllbnQgZ3JhZGllbnRVbml0cz0idXNlclNwYWNlT25Vc2UiIGdyYWRpZW50VHJhbnNmb3JtPSJyb3RhdGUoMTM0LjgzIDE4LjExMyA4LjI5NCkgc2NhbGUoMjUuODkyNSAzMy40MDMzKSIgcj0iMSIgY3k9IjAiIGN4PSIwIiBpZD0iZCI+JiN4YTsgICAgICA8c3RvcCBzdG9wLWNvbG9yPSIjMDI4RkRDIiBvZmZzZXQ9Ii4zOSIvPiYjeGE7ICAgICAgPHN0b3Agc3RvcC1jb2xvcj0iIzAwNzhENCIgb2Zmc2V0PSIuNTkiLz4mI3hhOyAgICAgIDxzdG9wIHN0b3AtY29sb3I9IiMxQTUwOEIiIG9mZnNldD0iMSIvPiYjeGE7ICAgIDwvcmFkaWFsR3JhZGllbnQ+JiN4YTsgICAgPHJhZGlhbEdyYWRpZW50IGdyYWRpZW50VW5pdHM9InVzZXJTcGFjZU9uVXNlIiBncmFkaWVudFRyYW5zZm9ybT0icm90YXRlKDEzOS40NCAxMi41NCAxNC4xNDUpIHNjYWxlKDIzLjMwMDYgMjguNzQ5NSkiIHI9IjEiIGN5PSIwIiBjeD0iMCIgaWQ9ImUiPiYjeGE7ICAgICAgPHN0b3Agc3RvcC1jb2xvcj0iIzQwRDlGQSIgb2Zmc2V0PSIuNDYiLz4mI3hhOyAgICAgIDxzdG9wIHN0b3AtY29sb3I9IiMwMDk1RTYiIG9mZnNldD0iLjkiLz4mI3hhOyAgICA8L3JhZGlhbEdyYWRpZW50PiYjeGE7ICAgIDxyYWRpYWxHcmFkaWVudCBncmFkaWVudFVuaXRzPSJ1c2VyU3BhY2VPblVzZSIgZ3JhZGllbnRUcmFuc2Zvcm09Im1hdHJpeCgtMi42NTMwOCAyNC41ODE4NCAtMTcuNDU4MzEgLTEuODg0MjUgMTguNDA4IDExLjc2NCkiIHI9IjEiIGN5PSIwIiBjeD0iMCIgaWQ9ImYiPiYjeGE7ICAgICAgPHN0b3Agc3RvcC1vcGFjaXR5PSIwIiBvZmZzZXQ9Ii43NyIvPiYjeGE7ICAgICAgPHN0b3Agb2Zmc2V0PSIxIi8+JiN4YTsgICAgPC9yYWRpYWxHcmFkaWVudD4mI3hhOyAgICA8cmFkaWFsR3JhZGllbnQgZ3JhZGllbnRVbml0cz0idXNlclNwYWNlT25Vc2UiIGdyYWRpZW50VHJhbnNmb3JtPSJyb3RhdGUoODUuOTcgLTEuMDExIDMxLjIwOSkgc2NhbGUoMzguNDc0OSA3MC4xNTc4KSIgcj0iMSIgY3k9IjAiIGN4PSIwIiBpZD0iZyI+JiN4YTsgICAgICA8c3RvcCBzdG9wLWNvbG9yPSIjQkRGNUZGIiBvZmZzZXQ9Ii4xIi8+JiN4YTsgICAgICA8c3RvcCBzdG9wLWNvbG9yPSIjNDBEOUZBIiBvZmZzZXQ9Ii40NyIvPiYjeGE7ICAgIDwvcmFkaWFsR3JhZGllbnQ+JiN4YTsgICAgPGxpbmVhckdyYWRpZW50IGdyYWRpZW50VW5pdHM9InVzZXJTcGFjZU9uVXNlIiB5Mj0iMjUuNTU3IiB5MT0iMTcuNDczIiB4Mj0iNC40NDgiIHgxPSIzOS41MSIgaWQ9ImIiPiYjeGE7ICAgICAgPHN0b3Agc3RvcC1jb2xvcj0iIzAyOEZEQyIgb2Zmc2V0PSIuMiIvPiYjeGE7ICAgICAgPHN0b3Agc3RvcC1jb2xvcj0iIzAwNzhENCIgb2Zmc2V0PSIuNTEiLz4mI3hhOyAgICAgIDxzdG9wIHN0b3AtY29sb3I9IiMwQjMxNUIiIG9mZnNldD0iMSIvPiYjeGE7ICAgIDwvbGluZWFyR3JhZGllbnQ+JiN4YTsgICAgPGxpbmVhckdyYWRpZW50IGdyYWRpZW50VW5pdHM9InVzZXJTcGFjZU9uVXNlIiB5Mj0iNy4xMTIiIHkxPSIyOC4zNDEiIHgyPSIxOC44MzEiIHgxPSI0MS45OTUiIGlkPSJjIj4mI3hhOyAgICAgIDxzdG9wIHN0b3AtY29sb3I9IiMwMjhGREMiIG9mZnNldD0iLjA0Ii8+JiN4YTsgICAgICA8c3RvcCBzdG9wLWNvbG9yPSIjMDA3OEQ0IiBvZmZzZXQ9Ii40NiIvPiYjeGE7ICAgICAgPHN0b3Agc3RvcC1jb2xvcj0iIzBCMzE1QiIgb2Zmc2V0PSIxIi8+JiN4YTsgICAgPC9saW5lYXJHcmFkaWVudD4mI3hhOyAgPC9kZWZzPiYjeGE7PC9zdmc+" vertex="1" parent="1">
          <mxGeometry x="468.5" y="411" width="48" height="49" as="geometry" />
        </mxCell>
        <mxCell id="edKd6S3Bh1CEA_6oNVMS-9" value="Shortcut" style="edgeStyle=orthogonalEdgeStyle;rounded=0;orthogonalLoop=1;jettySize=auto;html=1;" edge="1" parent="1" source="edKd6S3Bh1CEA_6oNVMS-3" target="edKd6S3Bh1CEA_6oNVMS-8">
          <mxGeometry relative="1" as="geometry" />
        </mxCell>
        <mxCell id="edKd6S3Bh1CEA_6oNVMS-3" value="" style="image;aspect=fixed;html=1;points=[];align=center;fontSize=12;image=img/lib/azure2/general/Blob_Block.svg;" vertex="1" parent="1">
          <mxGeometry x="150" y="330" width="68.13" height="54.5" as="geometry" />
        </mxCell>
        <mxCell id="edKd6S3Bh1CEA_6oNVMS-5" value="MS Fabric" style="shape=image;verticalLabelPosition=top;verticalAlign=bottom;imageAspect=0;aspect=fixed;image=data:image/svg+xml,PHN2ZyB4bWxucz0iaHR0cDovL3d3dy53My5vcmcvMjAwMC9zdmciIGZpbGw9Im5vbmUiIHZpZXdCb3g9IjAgMCAyNTYgMjU2IiBoZWlnaHQ9IjI1NiIgd2lkdGg9IjI1NiI+JiN4YTs8ZyBjbGlwLXBhdGg9InVybCgjY2xpcDBfMTI2M18xMjQ1OTApIj4mI3hhOzxwYXRoIGZpbGw9InVybCgjcGFpbnQwX2xpbmVhcl8xMjYzXzEyNDU5MCkiIGQ9Ik0xMC40OTYgMTc2LjYzNEw2Ljc0NjY5IDE5MC4zNTZDNS4zNDkzNyAxOTQuNzQ2IDMuMzkyMDUgMjAxLjE5NCAyLjMzNjA2IDIwNi45MzJDMC44MzIwNjkgMjEwLjkgMC4wMTA3NDIyIDIxNS4yMDQgMC4wMTA3NDIyIDIxOS43QzAuMDEwNzQyMiAyMzguMjM5IDE0LjAxNiAyNTMuNTAyIDMyLjAyMTIgMjU1LjQ5N0MzNy4wODc4IDI1Ni4yMjggNDIuODIxMSAyNTYuMTkgNDkuMjQ3NyAyNTUuMjQ2TDc4Ljc3MjggMjUxLjE3MkM4Ni4xOTY3IDI1MC4xNDggOTIuMjkyNyAyNDQuNzg4IDk0LjI2NiAyMzcuNTU2TDExNC41ODYgMTYyLjkyMkwxMC40OTYgMTc2LjYzNFoiIGNsaXAtcnVsZT0iZXZlbm9kZCIgZmlsbC1ydWxlPSJldmVub2RkIi8+JiN4YTs8cGF0aCBmaWxsPSJ1cmwoI3BhaW50MV9saW5lYXJfMTI2M18xMjQ1OTApIiBkPSJNMzkuMjk0MiAxODAuMTdDOC4xNzQ0NCAxODQuOTkxIDEuNzg1MTYgMjA4LjQ3NCAxLjc4NTE2IDIwOC40NzRMMzEuNTg3NiA5OC45NzA4TDE4Ny4zMTQgNzcuOTA0M0wxNjYuMDc3IDE1NS4wNEMxNjQuOTczIDE1OS4xNzMgMTYxLjUwMSAxNjIuMzQxIDE1Ny4xOTcgMTYyLjk5N0wxNTYuMzI4IDE2My4xNDFMMzguNDE5NSAxODAuMzJMMzkuMjk0MiAxODAuMTdaIi8+JiN4YTs8cGF0aCBmaWxsLW9wYWNpdHk9IjAuOCIgZmlsbD0idXJsKCNwYWludDJfbGluZWFyXzEyNjNfMTI0NTkwKSIgZD0iTTM5LjI5NDIgMTgwLjE3QzguMTc0NDQgMTg0Ljk5MSAxLjc4NTE2IDIwOC40NzQgMS43ODUxNiAyMDguNDc0TDMxLjU4NzYgOTguOTcwOEwxODcuMzE0IDc3LjkwNDNMMTY2LjA3NyAxNTUuMDRDMTY0Ljk3MyAxNTkuMTczIDE2MS41MDEgMTYyLjM0MSAxNTcuMTk3IDE2Mi45OTdMMTU2LjMyOCAxNjMuMTQxTDM4LjQxOTUgMTgwLjMyTDM5LjI5NDIgMTgwLjE3WiIvPiYjeGE7PHBhdGggZmlsbD0idXJsKCNwYWludDNfbGluZWFyXzEyNjNfMTI0NTkwKSIgZD0iTTU2Ljk1MzIgMTEwLjMwM0wyMjkuMzUyIDg0LjgzNjdDMjMzLjQ1MyA4NC4yNzY3IDIzNi43NzYgODEuMjc0IDIzNy44MjEgNzcuMzQzNEwyNTUuNjEzIDEyLjk1NDZDMjU1Ljg1OCAxMi4wNzk5IDI1NS45ODYgMTEuMTU3MiAyNTUuOTg2IDEwLjIwNzlDMjU1Ljk4NiA0LjU3MDYzIDI1MS40MjEgMCAyNDUuNzc4IDBDMjQ1LjM0MSAwIDI0NC45MDQgMC4wMjY2NjY1IDI0NC40ODIgMC4wNzk5OTk0TDc5Ljk4MjQgMjQuMzg5MUM2Mi4xMTU4IDI3LjI1ODUgNDcuNjg5MyA0MC40MzcgNDMuMDA2NyA1Ny42MjYyTDE5LjI4NDIgMTQzLjYwNEMyNC4wNDY4IDEyNi4yMTIgMjYuOTc0OCAxMTUuNzI3IDU2Ljk1MzIgMTEwLjMwM1oiLz4mI3hhOzxwYXRoIGZpbGw9InVybCgjcGFpbnQ0X2xpbmVhcl8xMjYzXzEyNDU5MCkiIGQ9Ik01Ni45NTMyIDExMC4zMDNMMjI5LjM1MiA4NC44MzY3QzIzMy40NTMgODQuMjc2NyAyMzYuNzc2IDgxLjI3NCAyMzcuODIxIDc3LjM0MzRMMjU1LjYxMyAxMi45NTQ2QzI1NS44NTggMTIuMDc5OSAyNTUuOTg2IDExLjE1NzIgMjU1Ljk4NiAxMC4yMDc5QzI1NS45ODYgNC41NzA2MyAyNTEuNDIxIDAgMjQ1Ljc3OCAwQzI0NS4zNDEgMCAyNDQuOTA0IDAuMDI2NjY2NSAyNDQuNDgyIDAuMDc5OTk5NEw3OS45ODI0IDI0LjM4OTFDNjIuMTE1OCAyNy4yNTg1IDQ3LjY4OTMgNDAuNDM3IDQzLjAwNjcgNTcuNjI2MkwxOS4yODQyIDE0My42MDRDMjQuMDQ2OCAxMjYuMjEyIDI2Ljk3NDggMTE1LjcyNyA1Ni45NTMyIDExMC4zMDNaIi8+JiN4YTs8cGF0aCBmaWxsPSJ1cmwoI3BhaW50NV9saW5lYXJfMTI2M18xMjQ1OTApIiBkPSJNNTYuOTUzMiAxMTAuMzAzTDIyOS4zNTIgODQuODM2N0MyMzMuNDUzIDg0LjI3NjcgMjM2Ljc3NiA4MS4yNzQgMjM3LjgyMSA3Ny4zNDM0TDI1NS42MTMgMTIuOTU0NkMyNTUuODU4IDEyLjA3OTkgMjU1Ljk4NiAxMS4xNTcyIDI1NS45ODYgMTAuMjA3OUMyNTUuOTg2IDQuNTcwNjMgMjUxLjQyMSAwIDI0NS43NzggMEMyNDUuMzQxIDAgMjQ0LjkwNCAwLjAyNjY2NjUgMjQ0LjQ4MiAwLjA3OTk5OTRMNzkuOTgyNCAyNC4zODkxQzYyLjExNTggMjcuMjU4NSA0Ny42ODkzIDQwLjQzNyA0My4wMDY3IDU3LjYyNjJMMTkuMjg0MiAxNDMuNjA0QzI0LjA0NjggMTI2LjIxMiAyNi45NzQ4IDExNS43MjcgNTYuOTUzMiAxMTAuMzAzWiIvPiYjeGE7PHBhdGggZmlsbD0idXJsKCNwYWludDZfbGluZWFyXzEyNjNfMTI0NTkwKSIgZD0iTTU2Ljk1MzIgMTEwLjMwM0wyMjkuMzUyIDg0LjgzNjdDMjMzLjQ1MyA4NC4yNzY3IDIzNi43NzYgODEuMjc0IDIzNy44MjEgNzcuMzQzNEwyNTUuNjEzIDEyLjk1NDZDMjU1Ljg1OCAxMi4wNzk5IDI1NS45ODYgMTEuMTU3MiAyNTUuOTg2IDEwLjIwNzlDMjU1Ljk4NiA0LjU3MDYzIDI1MS40MjEgMCAyNDUuNzc4IDBDMjQ1LjM0MSAwIDI0NC45MDQgMC4wMjY2NjY1IDI0NC40ODIgMC4wNzk5OTk0TDc5Ljk4MjQgMjQuMzg5MUM2Mi4xMTU4IDI3LjI1ODUgNDcuNjg5MyA0MC40MzcgNDMuMDA2NyA1Ny42MjYyTDE5LjI4NDIgMTQzLjYwNEMyNC4wNDY4IDEyNi4yMTIgMjYuOTc0OCAxMTUuNzI3IDU2Ljk1MzIgMTEwLjMwM1oiLz4mI3hhOzxwYXRoIGZpbGw9InVybCgjcGFpbnQ3X2xpbmVhcl8xMjYzXzEyNDU5MCkiIGQ9Ik01Ni45NTMyIDExMC4zMDNMMjI5LjM1MiA4NC44MzY3QzIzMy40NTMgODQuMjc2NyAyMzYuNzc2IDgxLjI3NCAyMzcuODIxIDc3LjM0MzRMMjU1LjYxMyAxMi45NTQ2QzI1NS44NTggMTIuMDc5OSAyNTUuOTg2IDExLjE1NzIgMjU1Ljk4NiAxMC4yMDc5QzI1NS45ODYgNC41NzA2MyAyNTEuNDIxIDAgMjQ1Ljc3OCAwQzI0NS4zNDEgMCAyNDQuOTA0IDAuMDI2NjY2NSAyNDQuNDgyIDAuMDc5OTk5NEw3OS45ODI0IDI0LjM4OTFDNjIuMTE1OCAyNy4yNTg1IDQ3LjY4OTMgNDAuNDM3IDQzLjAwNjcgNTcuNjI2MkwxOS4yODQyIDE0My42MDRDMjQuMDQ2OCAxMjYuMjEyIDI2Ljk3NDggMTE1LjcyNyA1Ni45NTMyIDExMC4zMDNaIi8+JiN4YTs8cGF0aCBmaWxsPSJ1cmwoI3BhaW50OF9saW5lYXJfMTI2M18xMjQ1OTApIiBkPSJNNTYuOTUzMiAxMTAuMzAzTDIyOS4zNTIgODQuODM2N0MyMzMuNDUzIDg0LjI3NjcgMjM2Ljc3NiA4MS4yNzQgMjM3LjgyMSA3Ny4zNDM0TDI1NS42MTMgMTIuOTU0NkMyNTUuODU4IDEyLjA3OTkgMjU1Ljk4NiAxMS4xNTcyIDI1NS45ODYgMTAuMjA3OUMyNTUuOTg2IDQuNTcwNjMgMjUxLjQyMSAwIDI0NS43NzggMEMyNDUuMzQxIDAgMjQ0LjkwNCAwLjAyNjY2NjUgMjQ0LjQ4MiAwLjA3OTk5OTRMNzkuOTgyNCAyNC4zODkxQzYyLjExNTggMjcuMjU4NSA0Ny42ODkzIDQwLjQzNyA0My4wMDY3IDU3LjYyNjJMMTkuMjg0MiAxNDMuNjA0QzI0LjA0NjggMTI2LjIxMiAyNi45NzQ4IDExNS43MjcgNTYuOTUzMiAxMTAuMzAzWiIvPiYjeGE7PHBhdGggZmlsbC1vcGFjaXR5PSIwLjQiIGZpbGw9InVybCgjcGFpbnQ5X2xpbmVhcl8xMjYzXzEyNDU5MCkiIGQ9Ik01Ni45NTMyIDExMC4zMDNMMjI5LjM1MiA4NC44MzY3QzIzMy40NTMgODQuMjc2NyAyMzYuNzc2IDgxLjI3NCAyMzcuODIxIDc3LjM0MzRMMjU1LjYxMyAxMi45NTQ2QzI1NS44NTggMTIuMDc5OSAyNTUuOTg2IDExLjE1NzIgMjU1Ljk4NiAxMC4yMDc5QzI1NS45ODYgNC41NzA2MyAyNTEuNDIxIDAgMjQ1Ljc3OCAwQzI0NS4zNDEgMCAyNDQuOTA0IDAuMDI2NjY2NSAyNDQuNDgyIDAuMDc5OTk5NEw3OS45ODI0IDI0LjM4OTFDNjIuMTE1OCAyNy4yNTg1IDQ3LjY4OTMgNDAuNDM3IDQzLjAwNjcgNTcuNjI2MkwxOS4yODQyIDE0My42MDRDMjQuMDQ2OCAxMjYuMjEyIDI2Ljk3NDggMTE1LjcyNyA1Ni45NTMyIDExMC4zMDNaIi8+JiN4YTs8cGF0aCBmaWxsPSJ1cmwoI3BhaW50MTBfbGluZWFyXzEyNjNfMTI0NTkwKSIgZD0iTTU2Ljk1MjcgMTEwLjMwOUMzMS45ODc2IDExNC44MjcgMjUuNzkwMyAxMjIuODY5IDIxLjY2MjMgMTM1LjQ3MkwxLjc4NTE2IDIwOC40OUMxLjc4NTE2IDIwOC40OSA4LjEzNzExIDE4NS4yNDIgMzguODc4MiAxODAuMjcxTDE1Ni4zMzMgMTYzLjE2MkwxNTcuMjAzIDE2My4wMThDMTYxLjUwNyAxNjIuMzYyIDE2NC45NzkgMTU5LjE4OSAxNjYuMDgzIDE1NS4wNjFMMTgzLjU1NCA5MS42MDU1TDU2Ljk1ODEgMTEwLjMwOUg1Ni45NTI3WiIvPiYjeGE7PHBhdGggZmlsbC1vcGFjaXR5PSIwLjIiIGZpbGw9InVybCgjcGFpbnQxMV9saW5lYXJfMTI2M18xMjQ1OTApIiBkPSJNNTYuOTUyNyAxMTAuMzA5QzMxLjk4NzYgMTE0LjgyNyAyNS43OTAzIDEyMi44NjkgMjEuNjYyMyAxMzUuNDcyTDEuNzg1MTYgMjA4LjQ5QzEuNzg1MTYgMjA4LjQ5IDguMTM3MTEgMTg1LjI0MiAzOC44NzgyIDE4MC4yNzFMMTU2LjMzMyAxNjMuMTYyTDE1Ny4yMDMgMTYzLjAxOEMxNjEuNTA3IDE2Mi4zNjIgMTY0Ljk3OSAxNTkuMTg5IDE2Ni4wODMgMTU1LjA2MUwxODMuNTU0IDkxLjYwNTVMNTYuOTU4MSAxMTAuMzA5SDU2Ljk1MjdaIi8+JiN4YTs8cGF0aCBmaWxsPSJ1cmwoI3BhaW50MTJfbGluZWFyXzEyNjNfMTI0NTkwKSIgZD0iTTM4Ljg3OTggMTgwLjI3MkMxMi45MDEzIDE4NC40NzUgNC4zNjgwNCAyMDEuNjggMi4zMzYwNiAyMDYuOTIzQzAuODMyMDY5IDIxMC45MDEgMC4wMTA3NDIyIDIxNS4yMDUgMC4wMTA3NDIyIDIxOS43MDFDMC4wMTA3NDIyIDIzOC4yNCAxNC4wMTYgMjUzLjUwNCAzMi4wMjEyIDI1NS40OThDMzcuMDg3OCAyNTYuMjI5IDQyLjgyMTEgMjU2LjE5MiA0OS4yNDc3IDI1NS4yNDhMNzguNzcyOCAyNTEuMTczQzg2LjE5NjcgMjUwLjE0OSA5Mi4yOTI3IDI0NC43ODkgOTQuMjY2IDIzNy41NTdMMTEyLjc4OSAxNjkuNTFMMzguODg1MSAxODAuMjc4TDM4Ljg3OTggMTgwLjI3MloiIGNsaXAtcnVsZT0iZXZlbm9kZCIgZmlsbC1ydWxlPSJldmVub2RkIi8+JiN4YTs8L2c+JiN4YTs8ZGVmcz4mI3hhOzxsaW5lYXJHcmFkaWVudCBncmFkaWVudFVuaXRzPSJ1c2VyU3BhY2VPblVzZSIgeTI9IjE2Mi45MjIiIHgyPSI1Ny4yOTU2IiB5MT0iMjU2LjAwNCIgeDE9IjU3LjI5NTYiIGlkPSJwYWludDBfbGluZWFyXzEyNjNfMTI0NTkwIj4mI3hhOzxzdG9wIHN0b3AtY29sb3I9IiMyQUFDOTQiIG9mZnNldD0iMC4wNTYiLz4mI3hhOzxzdG9wIHN0b3AtY29sb3I9IiMyMzlDODciIG9mZnNldD0iMC4xNTUiLz4mI3hhOzxzdG9wIHN0b3AtY29sb3I9IiMxNzdFNzEiIG9mZnNldD0iMC4zNzIiLz4mI3hhOzxzdG9wIHN0b3AtY29sb3I9IiMwRTY5NjEiIG9mZnNldD0iMC41ODgiLz4mI3hhOzxzdG9wIHN0b3AtY29sb3I9IiMwOTVENTciIG9mZnNldD0iMC43OTkiLz4mI3hhOzxzdG9wIHN0b3AtY29sb3I9IiMwODU5NTQiIG9mZnNldD0iMSIvPiYjeGE7PC9saW5lYXJHcmFkaWVudD4mI3hhOzxsaW5lYXJHcmFkaWVudCBncmFkaWVudFVuaXRzPSJ1c2VyU3BhY2VPblVzZSIgeTI9IjkwLjcwNDIiIHgyPSI4NS4wMzI1IiB5MT0iMTg4LjQ2NSIgeDE9IjE3NC45MTYiIGlkPSJwYWludDFfbGluZWFyXzEyNjNfMTI0NTkwIj4mI3hhOzxzdG9wIHN0b3AtY29sb3I9IiNBQkU4OEUiIG9mZnNldD0iMC4wNDE3NDc4Ii8+JiN4YTs8c3RvcCBzdG9wLWNvbG9yPSIjMkFBQTkyIiBvZmZzZXQ9IjAuNTQ4OTI2Ii8+JiN4YTs8c3RvcCBzdG9wLWNvbG9yPSIjMTE3ODY1IiBvZmZzZXQ9IjAuOTA2Ii8+JiN4YTs8L2xpbmVhckdyYWRpZW50PiYjeGE7PGxpbmVhckdyYWRpZW50IGdyYWRpZW50VW5pdHM9InVzZXJTcGFjZU9uVXNlIiB5Mj0iMTU0LjU0MiIgeDI9IjM5LjU3MTEiIHkxPSIxODMuNzEyIiB4MT0iLTQ1Ljk2NiIgaWQ9InBhaW50Ml9saW5lYXJfMTI2M18xMjQ1OTAiPiYjeGE7PHN0b3Agc3RvcC1jb2xvcj0iIzZBRDZGOSIvPiYjeGE7PHN0b3Agc3RvcC1vcGFjaXR5PSIwIiBzdG9wLWNvbG9yPSIjNkFENkY5IiBvZmZzZXQ9IjEiLz4mI3hhOzwvbGluZWFyR3JhZGllbnQ+JiN4YTs8bGluZWFyR3JhZGllbnQgZ3JhZGllbnRVbml0cz0idXNlclNwYWNlT25Vc2UiIHkyPSI3MS44MDIxIiB4Mj0iMjQ2Ljk2OCIgeTE9IjcxLjgwMjEiIHgxPSIxOS4yODQyIiBpZD0icGFpbnQzX2xpbmVhcl8xMjYzXzEyNDU5MCI+JiN4YTs8c3RvcCBzdG9wLWNvbG9yPSIjMjVGRkQ0IiBvZmZzZXQ9IjAuMDQzIi8+JiN4YTs8c3RvcCBzdG9wLWNvbG9yPSIjNTVEREI5IiBvZmZzZXQ9IjAuODc0Ii8+JiN4YTs8L2xpbmVhckdyYWRpZW50PiYjeGE7PGxpbmVhckdyYWRpZW50IGdyYWRpZW50VW5pdHM9InVzZXJTcGFjZU9uVXNlIiB5Mj0iMTE0LjYxMiIgeDI9IjE1NS43NDciIHkxPSI5LjkwOTI2IiB4MT0iMTA2LjkyMSIgaWQ9InBhaW50NF9saW5lYXJfMTI2M18xMjQ1OTAiPiYjeGE7PHN0b3Agc3RvcC1vcGFjaXR5PSIwLjYiIHN0b3AtY29sb3I9IiNGNEUwODQiLz4mI3hhOzxzdG9wIHN0b3Atb3BhY2l0eT0iMCIgc3RvcC1jb2xvcj0iI0Y0RTA4NCIgb2Zmc2V0PSIwLjUzNCIvPiYjeGE7PC9saW5lYXJHcmFkaWVudD4mI3hhOzxsaW5lYXJHcmFkaWVudCBncmFkaWVudFVuaXRzPSJ1c2VyU3BhY2VPblVzZSIgeTI9IjQ1LjgzNSIgeDI9IjI1My45OCIgeTE9Ii01NS4yNjQxIiB4MT0iMTg4LjE2MiIgaWQ9InBhaW50NV9saW5lYXJfMTI2M18xMjQ1OTAiPiYjeGE7PHN0b3Agc3RvcC1jb2xvcj0iI0FCRjVFMiIvPiYjeGE7PHN0b3Agc3RvcC1jb2xvcj0iIzRFRTZCRCIgb2Zmc2V0PSIxIi8+JiN4YTs8L2xpbmVhckdyYWRpZW50PiYjeGE7PGxpbmVhckdyYWRpZW50IGdyYWRpZW50VW5pdHM9InVzZXJTcGFjZU9uVXNlIiB5Mj0iMTQzLjYwNCIgeDI9IjEzNy42MzUiIHkxPSIwIiB4MT0iMTM3LjYzNSIgaWQ9InBhaW50Nl9saW5lYXJfMTI2M18xMjQ1OTAiPiYjeGE7PHN0b3Agc3RvcC1jb2xvcj0iIzFGOTM3RSIvPiYjeGE7PHN0b3Agc3RvcC1jb2xvcj0iIzlFRTA5RiIgb2Zmc2V0PSIxIi8+JiN4YTs8L2xpbmVhckdyYWRpZW50PiYjeGE7PGxpbmVhckdyYWRpZW50IGdyYWRpZW50VW5pdHM9InVzZXJTcGFjZU9uVXNlIiB5Mj0iMTQzLjYwNCIgeDI9IjEzNy42MzUiIHkxPSIwIiB4MT0iMTM3LjYzNSIgaWQ9InBhaW50N19saW5lYXJfMTI2M18xMjQ1OTAiPiYjeGE7PHN0b3Agc3RvcC1jb2xvcj0iIzFGOTM3RSIvPiYjeGE7PHN0b3Agc3RvcC1jb2xvcj0iI0MwRUNDNyIgb2Zmc2V0PSIxIi8+JiN4YTs8L2xpbmVhckdyYWRpZW50PiYjeGE7PGxpbmVhckdyYWRpZW50IGdyYWRpZW50VW5pdHM9InVzZXJTcGFjZU9uVXNlIiB5Mj0iMTM1LjIxNiIgeDI9IjIyNC4zODIiIHkxPSIzOS45NzgzIiB4MT0iMTkuMjg0MiIgaWQ9InBhaW50OF9saW5lYXJfMTI2M18xMjQ1OTAiPiYjeGE7PHN0b3Agc3RvcC1jb2xvcj0iIzZBRDZGOSIvPiYjeGE7PHN0b3Agc3RvcC1jb2xvcj0iIzYwRTlEMCIgb2Zmc2V0PSIwLjIyOTUwMSIvPiYjeGE7PHN0b3Agc3RvcC1jb2xvcj0iIzZERTlCQiIgb2Zmc2V0PSIwLjY1MDcxMSIvPiYjeGE7PHN0b3Agc3RvcC1jb2xvcj0iI0FCRTg4RSIgb2Zmc2V0PSIwLjk5MzU0Ii8+JiN4YTs8L2xpbmVhckdyYWRpZW50PiYjeGE7PGxpbmVhckdyYWRpZW50IGdyYWRpZW50VW5pdHM9InVzZXJTcGFjZU9uVXNlIiB5Mj0iODIuNDY2IiB4Mj0iMTQ5Ljc4MSIgeTE9IjU3LjgiIHgxPSIzOC4yNTgiIGlkPSJwYWludDlfbGluZWFyXzEyNjNfMTI0NTkwIj4mI3hhOzxzdG9wIHN0b3Atb3BhY2l0eT0iMCIgc3RvcC1jb2xvcj0id2hpdGUiLz4mI3hhOzxzdG9wIHN0b3AtY29sb3I9IndoaXRlIiBvZmZzZXQ9IjAuNDU4NTExIi8+JiN4YTs8c3RvcCBzdG9wLW9wYWNpdHk9IjAiIHN0b3AtY29sb3I9IndoaXRlIiBvZmZzZXQ9IjEiLz4mI3hhOzwvbGluZWFyR3JhZGllbnQ+JiN4YTs8bGluZWFyR3JhZGllbnQgZ3JhZGllbnRVbml0cz0idXNlclNwYWNlT25Vc2UiIHkyPSI3NS4xMzI4IiB4Mj0iNzcuODcyMiIgeTE9IjE1My4zNDEiIHgxPSI3NS4yMzciIGlkPSJwYWludDEwX2xpbmVhcl8xMjYzXzEyNDU5MCI+JiN4YTs8c3RvcCBzdG9wLW9wYWNpdHk9IjAiIHN0b3AtY29sb3I9IiMwNjNEM0IiIG9mZnNldD0iMC4yMDQ2NDIiLz4mI3hhOzxzdG9wIHN0b3Atb3BhY2l0eT0iMC4yMzY1ODciIHN0b3AtY29sb3I9IiMwNjNEM0IiIG9mZnNldD0iMC41ODU1MyIvPiYjeGE7PHN0b3Agc3RvcC1vcGFjaXR5PSIwLjc1IiBzdG9wLWNvbG9yPSIjMDYzRDNCIiBvZmZzZXQ9IjAuODcyMjg1Ii8+JiN4YTs8L2xpbmVhckdyYWRpZW50PiYjeGE7PGxpbmVhckdyYWRpZW50IGdyYWRpZW50VW5pdHM9InVzZXJTcGFjZU9uVXNlIiB5Mj0iMTYzLjQ4NyIgeDI9Ijg3LjY4NjEiIHkxPSIxNDUuNTYzIiB4MT0iLTcuNjE3OTciIGlkPSJwYWludDExX2xpbmVhcl8xMjYzXzEyNDU5MCI+JiN4YTs8c3RvcCBzdG9wLW9wYWNpdHk9IjAiIHN0b3AtY29sb3I9IndoaXRlIi8+JiN4YTs8c3RvcCBzdG9wLWNvbG9yPSJ3aGl0ZSIgb2Zmc2V0PSIwLjQ1ODUxMSIvPiYjeGE7PHN0b3Agc3RvcC1vcGFjaXR5PSIwIiBzdG9wLWNvbG9yPSJ3aGl0ZSIgb2Zmc2V0PSIxIi8+JiN4YTs8L2xpbmVhckdyYWRpZW50PiYjeGE7PGxpbmVhckdyYWRpZW50IGdyYWRpZW50VW5pdHM9InVzZXJTcGFjZU9uVXNlIiB5Mj0iMTM5LjI5MiIgeDI9IjQyLjYzNTkiIHkxPSIyMzAuMjEzIiB4MT0iNjEuMjI2MyIgaWQ9InBhaW50MTJfbGluZWFyXzEyNjNfMTI0NTkwIj4mI3hhOzxzdG9wIHN0b3Atb3BhY2l0eT0iMCIgc3RvcC1jb2xvcj0iIzA2M0QzQiIgb2Zmc2V0PSIwLjA2NCIvPiYjeGE7PHN0b3Agc3RvcC1vcGFjaXR5PSIwLjEzNSIgc3RvcC1jb2xvcj0iIzA2M0QzQiIgb2Zmc2V0PSIwLjE3Ii8+JiN4YTs8c3RvcCBzdG9wLW9wYWNpdHk9IjAuNTk5IiBzdG9wLWNvbG9yPSIjMDYzRDNCIiBvZmZzZXQ9IjAuNTYyIi8+JiN4YTs8c3RvcCBzdG9wLW9wYWNpdHk9IjAuOSIgc3RvcC1jb2xvcj0iIzA2M0QzQiIgb2Zmc2V0PSIwLjg1Ii8+JiN4YTs8c3RvcCBzdG9wLWNvbG9yPSIjMDYzRDNCIiBvZmZzZXQ9IjEiLz4mI3hhOzwvbGluZWFyR3JhZGllbnQ+JiN4YTs8Y2xpcFBhdGggaWQ9ImNsaXAwXzEyNjNfMTI0NTkwIj4mI3hhOzxyZWN0IGZpbGw9IndoaXRlIiBoZWlnaHQ9IjI1NS45OTgiIHdpZHRoPSIyNTUuOTk4Ii8+JiN4YTs8L2NsaXBQYXRoPiYjeGE7PC9kZWZzPiYjeGE7PC9zdmc+;labelPosition=center;align=center;" vertex="1" parent="1">
          <mxGeometry x="220" y="90" width="86" height="86" as="geometry" />
        </mxCell>
        <mxCell id="edKd6S3Bh1CEA_6oNVMS-7" value="" style="shape=image;verticalLabelPosition=bottom;verticalAlign=top;imageAspect=0;aspect=fixed;image=data:image/svg+xml,PHN2ZyB4bWxucz0iaHR0cDovL3d3dy53My5vcmcvMjAwMC9zdmciIGZpbGw9Im5vbmUiIHZpZXdCb3g9IjAgMCAzMiAzMyIgaGVpZ2h0PSIzMyIgd2lkdGg9IjMyIj4mI3hhOzxwYXRoIGZpbGw9ImJsYWNrIiBkPSJNMTIuNjI2IDQuMzkwMDJDMTMuMzk3IDMuNjYxNzQgMTQuNjAzIDMuNjYxNzQgMTUuMzc0IDQuMzkwMDJMMjUuMDYxIDEzLjU0MDNDMjUuNjYwNCAxNC4xMDY0IDI2IDE0Ljg5NDEgMjYgMTUuNzE4MlYxOC42MDYyQzI1Ljc5OSAxOC40MjY0IDI1LjU3NCAxOC4yNzQgMjUuMzMwNyAxOC4xNTM4QzI0LjkxNyAxNy45NDkyIDI0LjQ2MTUgMTcuODQzMiAyNCAxNy44NDM4VjE1LjcxODJDMjQgMTUuNDQzNSAyMy44ODY4IDE1LjE4MSAyMy42ODcgMTQuOTkyMkwxNCA1Ljg0MTk4TDQuMzEyOTkgMTQuOTkyMkM0LjExMzIgMTUuMTgxIDQgMTUuNDQzNSA0IDE1LjcxODJWMjYuODQ2NkM0IDI3LjM5ODMgNC40NDc3MiAyNy44NDU2IDUgMjcuODQ1Nkg4Ljc2MjNDOC4yNzI2NyAyOC4zOTM5IDggMjkuMTA0OCA4IDI5Ljg0MzhMNSAyOS44NDM4QzMuMzQzMTQgMjkuODQzOCAyIDI4LjUwMTkgMiAyNi44NDY2VjE1LjcxODJDMiAxNC44OTQxIDIuMzM5NjEgMTQuMTA2NCAyLjkzODk2IDEzLjU0MDNMMTIuNjI2IDQuMzkwMDJaIi8+JiN4YTs8cGF0aCBmaWxsPSJibGFjayIgZD0iTTI5IDIyLjg0MzdDMjguMzk3OSAyMi44NzczIDI3Ljc5NTIgMjIuNzg3NiAyNy4yMjg5IDIyLjU4QzI2LjY2MjcgMjIuMzcyNSAyNi4xNDQ4IDIyLjA1MTUgMjUuNzA3IDIxLjYzNjdDMjUuNDY1OCAyMS4zOTY0IDI1LjI1OTEgMjEuMTIzOCAyNS4wOTMgMjAuODI2N0MyNS4wNTI2IDIwLjc1MDYgMjUuMDE2MyAyMC42NzI1IDI0Ljk4NCAyMC41OTI3QzI0Ljk0OTMgMjAuNTA1OSAyNC45MDkyIDIwLjQyMTQgMjQuODY0IDIwLjMzOTdDMjQuODQzNyAyMC4zMDUgMjQuODIxNCAyMC4yNzE2IDI0Ljc5NyAyMC4yMzk3QzI0LjY3MTkgMjAuMDc1MyAyNC40OTkgMTkuOTUzNyAyNC4zMDIxIDE5Ljg5MTZDMjQuMTA1MSAxOS44Mjk1IDIzLjg5MzcgMTkuODI5OCAyMy42OTcgMTkuODkyN0gyMy42ODdDMjMuNDU2NiAxOS45NzA5IDIzLjI2MTggMjAuMTI5MiAyMy4xMzggMjAuMzM4N0MyMy4wODYxIDIwLjQzNTMgMjMuMDQxMyAyMC41MzU1IDIzLjAwNCAyMC42Mzg3TDIyLjk5MzUgMjAuNjY0OEMyMi45NjYxIDIwLjczMzIgMjIuOTM4NiAyMC44MDE5IDIyLjkwNCAyMC44NjY3QzIyLjc1NDEgMjEuMTY2IDIyLjU3MDkgMjEuNDQ3NCAyMi4zNTggMjEuNzA1N0MyMi4wNzY1IDIyLjA2MTEgMjEuNzE4MiAyMi4zNDgyIDIxLjMxMDEgMjIuNTQ1NUMyMC45MDE5IDIyLjc0MjkgMjAuNDU0NCAyMi44NDU0IDIwLjAwMSAyMi44NDU0QzE5LjU0NzYgMjIuODQ1NCAxOS4xMDAxIDIyLjc0MjkgMTguNjkxOSAyMi41NDU1QzE4LjI4MzggMjIuMzQ4MiAxNy45MjU1IDIyLjA2MTEgMTcuNjQ0IDIxLjcwNTdDMTcuNDMxMSAyMS40NDc0IDE3LjI0NzkgMjEuMTY2IDE3LjA5OCAyMC44NjY3QzE3LjA3MTEgMjAuODEzNiAxNy4wNDc5IDIwLjc1NzkgMTcuMDI0NiAyMC43MDE5QzE3LjAxNTggMjAuNjgwOCAxNy4wMDcgMjAuNjU5NyAxNi45OTggMjAuNjM4N0MxNi45NjA3IDIwLjUzNTUgMTYuOTE1OSAyMC40MzUzIDE2Ljg2NCAyMC4zMzg3QzE2Ljc0MDIgMjAuMTI5MiAxNi41NDU0IDE5Ljk3MDkgMTYuMzE1IDE5Ljg5MjdIMTYuMzA1QzE2LjEwODMgMTkuODI5OCAxNS44OTY5IDE5LjgyOTUgMTUuNjk5OSAxOS44OTE2QzE1LjUwMyAxOS45NTM3IDE1LjMzMDEgMjAuMDc1MyAxNS4yMDUgMjAuMjM5N0MxNS4xODA2IDIwLjI3MTYgMTUuMTU4MyAyMC4zMDUgMTUuMTM4IDIwLjMzOTdDMTUuMDkyOCAyMC40MjE0IDE1LjA1MjcgMjAuNTA1OSAxNS4wMTggMjAuNTkyN0MxNC45ODU3IDIwLjY3MjUgMTQuOTQ5NCAyMC43NTA2IDE0LjkwOSAyMC44MjY3QzE0Ljc0MjkgMjEuMTIzOCAxNC41MzYyIDIxLjM5NjQgMTQuMjk1IDIxLjYzNjdDMTMuODU3IDIyLjA1MTcgMTMuMzM4NyAyMi4zNzI5IDEyLjc3MjEgMjIuNTgwNEMxMi4yMDU1IDIyLjc4OCAxMS42MDI1IDIyLjg3NzYgMTEgMjIuODQzN0MxMC43MzQ4IDIyLjg0MzcgMTAuNDgwNCAyMi45NDkgMTAuMjkyOSAyMy4xMzY2QzEwLjEwNTQgMjMuMzI0MSAxMCAyMy41Nzg1IDEwIDIzLjg0MzdDMTAgMjQuMTA4OSAxMC4xMDU0IDI0LjM2MzIgMTAuMjkyOSAyNC41NTA4QzEwLjQ4MDQgMjQuNzM4MyAxMC43MzQ4IDI0Ljg0MzcgMTEgMjQuODQzN0MxMS44NjUgMjQuODc3OSAxMi43Mjc5IDI0LjczNjcgMTMuNTM2OSAyNC40Mjg2QzE0LjM0NTggMjQuMTIwNCAxNS4wODQgMjMuNjUxNyAxNS43MDcgMjMuMDUwN0MxNS43OTQgMjIuOTYzNyAxNS44NzYgMjIuODc2NyAxNS45NTIgMjIuNzg5N0MxNi4wMDEgMjIuODU0NyAxNi4wNTIgMjIuOTE4NyAxNi4xMDcgMjIuOTgzN0MxNi41NzU2IDIzLjU2NTEgMTcuMTY4NiAyNC4wMzQyIDE3Ljg0MjIgMjQuMzU2NUMxOC41MTU5IDI0LjY3ODggMTkuMjUzMiAyNC44NDYxIDIwIDI0Ljg0NjFDMjAuNzQ2OCAyNC44NDYxIDIxLjQ4NDEgMjQuNjc4OCAyMi4xNTc4IDI0LjM1NjVDMjIuODMxNCAyNC4wMzQyIDIzLjQyNDQgMjMuNTY1MSAyMy44OTMgMjIuOTgzN0MyMy45NDcgMjIuOTE4NyAyMy45OTkgMjIuODU0NyAyNC4wNDggMjIuNzg5N0MyNC4xMjQgMjIuODc2NyAyNC4yMDYgMjIuOTYzNyAyNC4yOTMgMjMuMDUwN0MyNC45MTYgMjMuNjUxNyAyNS42NTQyIDI0LjEyMDQgMjYuNDYzMSAyNC40Mjg2QzI3LjI3MjEgMjQuNzM2NyAyOC4xMzUgMjQuODc3OSAyOSAyNC44NDM3QzI5LjI2NTIgMjQuODQzNyAyOS41MTk2IDI0LjczODMgMjkuNzA3MSAyNC41NTA4QzI5Ljg5NDYgMjQuMzYzMiAzMCAyNC4xMDg5IDMwIDIzLjg0MzdDMzAgMjMuNTc4NSAyOS44OTQ2IDIzLjMyNDEgMjkuNzA3MSAyMy4xMzY2QzI5LjUxOTYgMjIuOTQ5IDI5LjI2NTIgMjIuODQzNyAyOSAyMi44NDM3WiIvPiYjeGE7PHBhdGggZmlsbD0iYmxhY2siIGQ9Ik0yOSAyOC44NDM3QzI4LjM5NzkgMjguODc3MyAyNy43OTUyIDI4Ljc4NzYgMjcuMjI4OSAyOC41OEMyNi42NjI3IDI4LjM3MjUgMjYuMTQ0OCAyOC4wNTE1IDI1LjcwNyAyNy42MzY3QzI1LjQ2NTggMjcuMzk2NCAyNS4yNTkxIDI3LjEyMzggMjUuMDkzIDI2LjgyNjdDMjUuMDUyNiAyNi43NTA2IDI1LjAxNjMgMjYuNjcyNSAyNC45ODQgMjYuNTkyN0MyNC45NDkzIDI2LjUwNTkgMjQuOTA5MiAyNi40MjE0IDI0Ljg2NCAyNi4zMzk3QzI0Ljg0MzcgMjYuMzA1IDI0LjgyMTQgMjYuMjcxNiAyNC43OTcgMjYuMjM5N0MyNC42NzE5IDI2LjA3NTMgMjQuNDk5IDI1Ljk1MzcgMjQuMzAyMSAyNS44OTE2QzI0LjEwNTEgMjUuODI5NSAyMy44OTM3IDI1LjgyOTggMjMuNjk3IDI1Ljg5MjdIMjMuNjg3QzIzLjQ1NjYgMjUuOTcwOSAyMy4yNjE4IDI2LjEyOTIgMjMuMTM4IDI2LjMzODdDMjMuMDg2MSAyNi40MzUzIDIzLjA0MTMgMjYuNTM1NSAyMy4wMDQgMjYuNjM4N0wyMi45OTM1IDI2LjY2NDhDMjIuOTY2MSAyNi43MzMyIDIyLjkzODYgMjYuODAxOSAyMi45MDQgMjYuODY2N0MyMi43NTQxIDI3LjE2NiAyMi41NzA5IDI3LjQ0NzQgMjIuMzU4IDI3LjcwNTdDMjIuMDc2NSAyOC4wNjExIDIxLjcxODIgMjguMzQ4MiAyMS4zMTAxIDI4LjU0NTVDMjAuOTAxOSAyOC43NDI5IDIwLjQ1NDQgMjguODQ1NCAyMC4wMDEgMjguODQ1NEMxOS41NDc2IDI4Ljg0NTQgMTkuMTAwMSAyOC43NDI5IDE4LjY5MTkgMjguNTQ1NUMxOC4yODM4IDI4LjM0ODIgMTcuOTI1NSAyOC4wNjExIDE3LjY0NCAyNy43MDU3QzE3LjQzMTEgMjcuNDQ3NCAxNy4yNDc5IDI3LjE2NiAxNy4wOTggMjYuODY2N0MxNy4wNzExIDI2LjgxMzYgMTcuMDQ3OSAyNi43NTc5IDE3LjAyNDYgMjYuNzAxOUMxNy4wMTU4IDI2LjY4MDggMTcuMDA3IDI2LjY1OTcgMTYuOTk4IDI2LjYzODdDMTYuOTYwNyAyNi41MzU1IDE2LjkxNTkgMjYuNDM1MyAxNi44NjQgMjYuMzM4N0MxNi43NDAyIDI2LjEyOTIgMTYuNTQ1NCAyNS45NzA5IDE2LjMxNSAyNS44OTI3SDE2LjMwNUMxNi4xMDgzIDI1LjgyOTggMTUuODk2OSAyNS44Mjk1IDE1LjY5OTkgMjUuODkxNkMxNS41MDMgMjUuOTUzNyAxNS4zMzAxIDI2LjA3NTMgMTUuMjA1IDI2LjIzOTdDMTUuMTgwNiAyNi4yNzE2IDE1LjE1ODMgMjYuMzA1IDE1LjEzOCAyNi4zMzk3QzE1LjA5MjggMjYuNDIxNCAxNS4wNTI3IDI2LjUwNTkgMTUuMDE4IDI2LjU5MjdDMTQuOTg1NyAyNi42NzI1IDE0Ljk0OTQgMjYuNzUwNiAxNC45MDkgMjYuODI2N0MxNC43NDI5IDI3LjEyMzggMTQuNTM2MiAyNy4zOTY0IDE0LjI5NSAyNy42MzY3QzEzLjg1NyAyOC4wNTE3IDEzLjMzODcgMjguMzcyOSAxMi43NzIxIDI4LjU4MDRDMTIuMjA1NSAyOC43ODggMTEuNjAyNSAyOC44Nzc2IDExIDI4Ljg0MzdDMTAuNzM0OCAyOC44NDM3IDEwLjQ4MDQgMjguOTQ5IDEwLjI5MjkgMjkuMTM2NkMxMC4xMDU0IDI5LjMyNDEgMTAgMjkuNTc4NSAxMCAyOS44NDM3QzEwIDMwLjEwODkgMTAuMTA1NCAzMC4zNjMyIDEwLjI5MjkgMzAuNTUwOEMxMC40ODA0IDMwLjczODMgMTAuNzM0OCAzMC44NDM3IDExIDMwLjg0MzdDMTEuODY1IDMwLjg3NzkgMTIuNzI3OSAzMC43MzY3IDEzLjUzNjkgMzAuNDI4NkMxNC4zNDU4IDMwLjEyMDQgMTUuMDg0IDI5LjY1MTcgMTUuNzA3IDI5LjA1MDdDMTUuNzk0IDI4Ljk2MzcgMTUuODc2IDI4Ljg3NjcgMTUuOTUyIDI4Ljc4OTdDMTYuMDAxIDI4Ljg1NDcgMTYuMDUyIDI4LjkxODcgMTYuMTA3IDI4Ljk4MzdDMTYuNTc1NiAyOS41NjUxIDE3LjE2ODYgMzAuMDM0MiAxNy44NDIyIDMwLjM1NjVDMTguNTE1OSAzMC42Nzg4IDE5LjI1MzIgMzAuODQ2MSAyMCAzMC44NDYxQzIwLjc0NjggMzAuODQ2MSAyMS40ODQxIDMwLjY3ODggMjIuMTU3OCAzMC4zNTY1QzIyLjgzMTQgMzAuMDM0MiAyMy40MjQ0IDI5LjU2NTEgMjMuODkzIDI4Ljk4MzdDMjMuOTQ3IDI4LjkxODcgMjMuOTk5IDI4Ljg1NDcgMjQuMDQ4IDI4Ljc4OTdDMjQuMTI0IDI4Ljg3NjcgMjQuMjA2IDI4Ljk2MzcgMjQuMjkzIDI5LjA1MDdDMjQuOTE2IDI5LjY1MTcgMjUuNjU0MiAzMC4xMjA0IDI2LjQ2MzEgMzAuNDI4NkMyNy4yNzIxIDMwLjczNjcgMjguMTM1IDMwLjg3NzkgMjkgMzAuODQzN0MyOS4yNjUyIDMwLjg0MzcgMjkuNTE5NiAzMC43MzgzIDI5LjcwNzEgMzAuNTUwOEMyOS44OTQ2IDMwLjM2MzIgMzAgMzAuMTA4OSAzMCAyOS44NDM3QzMwIDI5LjU3ODUgMjkuODk0NiAyOS4zMjQxIDI5LjcwNzEgMjkuMTM2NkMyOS41MTk2IDI4Ljk0OSAyOS4yNjUyIDI4Ljg0MzcgMjkgMjguODQzN1oiLz4mI3hhOzwvc3ZnPg==" vertex="1" parent="1">
          <mxGeometry x="284" y="300" width="32" height="33" as="geometry" />
        </mxCell>
        <mxCell id="edKd6S3Bh1CEA_6oNVMS-8" value="" style="rounded=0;whiteSpace=wrap;html=1;fillColor=none;" vertex="1" parent="1">
          <mxGeometry x="280" y="300" width="440" height="110" as="geometry" />
        </mxCell>
        <mxCell id="edKd6S3Bh1CEA_6oNVMS-10" value=".dta files in Azure ADLS Gen2" style="whiteSpace=wrap;html=1;" vertex="1" parent="1">
          <mxGeometry x="148.13" y="384.5" width="70" height="45.5" as="geometry" />
        </mxCell>
        <mxCell id="edKd6S3Bh1CEA_6oNVMS-16" style="edgeStyle=orthogonalEdgeStyle;rounded=0;orthogonalLoop=1;jettySize=auto;html=1;exitX=1;exitY=0.5;exitDx=0;exitDy=0;" edge="1" parent="1" source="edKd6S3Bh1CEA_6oNVMS-11" target="edKd6S3Bh1CEA_6oNVMS-12">
          <mxGeometry relative="1" as="geometry" />
        </mxCell>
        <mxCell id="edKd6S3Bh1CEA_6oNVMS-11" value="Bronze&lt;div&gt;conversion from dta to delta tables&lt;/div&gt;" style="rounded=0;whiteSpace=wrap;html=1;fillColor=#FFB366;strokeColor=#d6b656;" vertex="1" parent="1">
          <mxGeometry x="305" y="333.63" width="120" height="47.25" as="geometry" />
        </mxCell>
        <mxCell id="edKd6S3Bh1CEA_6oNVMS-17" style="edgeStyle=orthogonalEdgeStyle;rounded=0;orthogonalLoop=1;jettySize=auto;html=1;exitX=1;exitY=0.5;exitDx=0;exitDy=0;entryX=0;entryY=0.5;entryDx=0;entryDy=0;" edge="1" parent="1" source="edKd6S3Bh1CEA_6oNVMS-12" target="edKd6S3Bh1CEA_6oNVMS-13">
          <mxGeometry relative="1" as="geometry" />
        </mxCell>
        <mxCell id="edKd6S3Bh1CEA_6oNVMS-19" style="edgeStyle=orthogonalEdgeStyle;rounded=0;orthogonalLoop=1;jettySize=auto;html=1;exitX=0.5;exitY=0;exitDx=0;exitDy=0;entryX=0;entryY=0.5;entryDx=0;entryDy=0;" edge="1" parent="1" source="edKd6S3Bh1CEA_6oNVMS-12" target="edKd6S3Bh1CEA_6oNVMS-18">
          <mxGeometry relative="1" as="geometry" />
        </mxCell>
        <mxCell id="edKd6S3Bh1CEA_6oNVMS-12" value="Silver" style="rounded=0;whiteSpace=wrap;html=1;fillColor=#f5f5f5;strokeColor=#666666;fontColor=#333333;" vertex="1" parent="1">
          <mxGeometry x="448.5" y="333.63" width="120" height="47.25" as="geometry" />
        </mxCell>
        <mxCell id="edKd6S3Bh1CEA_6oNVMS-15" style="edgeStyle=orthogonalEdgeStyle;rounded=0;orthogonalLoop=1;jettySize=auto;html=1;" edge="1" parent="1" source="edKd6S3Bh1CEA_6oNVMS-13" target="edKd6S3Bh1CEA_6oNVMS-14">
          <mxGeometry relative="1" as="geometry" />
        </mxCell>
        <mxCell id="edKd6S3Bh1CEA_6oNVMS-20" style="edgeStyle=orthogonalEdgeStyle;rounded=0;orthogonalLoop=1;jettySize=auto;html=1;exitX=0.5;exitY=0;exitDx=0;exitDy=0;" edge="1" parent="1" source="edKd6S3Bh1CEA_6oNVMS-13" target="edKd6S3Bh1CEA_6oNVMS-18">
          <mxGeometry relative="1" as="geometry" />
        </mxCell>
        <mxCell id="edKd6S3Bh1CEA_6oNVMS-13" value="Gold" style="rounded=0;whiteSpace=wrap;html=1;fillColor=#fff2cc;strokeColor=#d6b656;" vertex="1" parent="1">
          <mxGeometry x="590" y="333" width="120" height="47.25" as="geometry" />
        </mxCell>
        <mxCell id="edKd6S3Bh1CEA_6oNVMS-14" value="Power BI" style="shape=image;verticalLabelPosition=bottom;verticalAlign=top;imageAspect=0;aspect=fixed;image=data:image/svg+xml,PHN2ZyB4bWxuczp4bGluaz0iaHR0cDovL3d3dy53My5vcmcvMTk5OS94bGluayIgeG1sbnM9Imh0dHA6Ly93d3cudzMub3JnLzIwMDAvc3ZnIiB2aWV3Qm94PSIwIDAgNDggNDgiIGhlaWdodD0iNDgiIHdpZHRoPSI0OCIgZGF0YS1uYW1lPSJMYXllciAxIiBpZD0idXVpZC05MmY1YTIzNi00YmY2LTQ1ZWUtODAwMC1iMDdhOTg3MzlmMjUiPiYjeGE7ICA8ZGVmcz4mI3hhOyAgICA8bGluZWFyR3JhZGllbnQgZ3JhZGllbnRVbml0cz0idXNlclNwYWNlT25Vc2UiIGdyYWRpZW50VHJhbnNmb3JtPSJtYXRyaXgoMSwgMCwgMCwgMSwgMCwgMCkiIHkyPSIzLjU5OSIgeDI9IjQzLjYyNSIgeTE9IjQ3LjczMyIgeDE9IjIyLjgwMyIgaWQ9InV1aWQtZmIxMzdkZTYtOGRmNC00MjEwLWIxNTUtOWE3YzMyN2E3N2I4Ij4mI3hhOyAgICAgIDxzdG9wIHN0b3AtY29sb3I9IiNjODdlMGUiIG9mZnNldD0iMCIvPiYjeGE7ICAgICAgPHN0b3Agc3RvcC1jb2xvcj0iI2U2YWQxMCIgb2Zmc2V0PSIxIi8+JiN4YTsgICAgPC9saW5lYXJHcmFkaWVudD4mI3hhOyAgICA8bGluZWFyR3JhZGllbnQgZ3JhZGllbnRVbml0cz0idXNlclNwYWNlT25Vc2UiIGdyYWRpZW50VHJhbnNmb3JtPSJtYXRyaXgoMSwgMCwgMCwgMSwgMCwgMCkiIHkyPSIxMy44MzEiIHgyPSIzMi43MjgiIHkxPSI0Ny42MzciIHgxPSIxNS4yOTYiIGlkPSJ1dWlkLWEzMWM2OTVmLTU4ZTctNDA2MS1hNGRiLTIxNzM1Njk2MzAzZCI+JiN4YTsgICAgICA8c3RvcCBzdG9wLWNvbG9yPSIjZTZhZDEwIiBvZmZzZXQ9IjAiLz4mI3hhOyAgICAgIDxzdG9wIHN0b3AtY29sb3I9IiNmNmQ3NTEiIG9mZnNldD0iMSIvPiYjeGE7ICAgIDwvbGluZWFyR3JhZGllbnQ+JiN4YTsgICAgPGxpbmVhckdyYWRpZW50IGdyYWRpZW50VW5pdHM9InVzZXJTcGFjZU9uVXNlIiBncmFkaWVudFRyYW5zZm9ybT0ibWF0cml4KDEsIDAsIDAsIDEsIDAsIDApIiB5Mj0iMjYuMzc5IiB4Mj0iMTguMzk2IiB5MT0iNDguNjAxIiB4MT0iOS4wMTkiIGlkPSJ1dWlkLTM3OWNmMDI1LTc3ZTItNDA5OC1hNTQ3LTZmNGQyMTI3ODAyMCI+JiN4YTsgICAgICA8c3RvcCBzdG9wLWNvbG9yPSIjZjZkNzUxIiBvZmZzZXQ9IjAiLz4mI3hhOyAgICAgIDxzdG9wIHN0b3AtY29sb3I9IiNmOWU1ODkiIG9mZnNldD0iMSIvPiYjeGE7ICAgIDwvbGluZWFyR3JhZGllbnQ+JiN4YTsgIDwvZGVmcz4mI3hhOyAgPHRleHQgZm9udC13ZWlnaHQ9IjcwMCIgZm9udC1zaXplPSI0OCIgZm9udC1mYW1pbHk9IlNlZ29lVUktU2VtaWJvbGQsICdTZWdvZSBVSSciIGZpbGw9IiNiNGI0YjQiIHRyYW5zZm9ybT0idHJhbnNsYXRlKDAgLTE4LjM0MSkiPjx0c3BhbiB5PSIwIiB4PSIwIj40OHg8L3RzcGFuPjwvdGV4dD4mI3hhOyAgPGc+JiN4YTsgICAgPHBhdGggZmlsbD0idXJsKCN1dWlkLWZiMTM3ZGU2LThkZjQtNDIxMC1iMTU1LTlhN2MzMjdhNzdiOCkiIGQ9Ik00Miw0Ni4wMDNWMS45OTdjLS4wMDItMS4xMDMtLjg5Ni0xLjk5Ny0yLTEuOTk3aC0xMmMtMS4xMDUsMC0yLC44OTUtMiwydjMuMTM2aDBWNDhoMTQuMDAxYzEuMTAzLDAsMS45OTctLjg5NCwxLjk5OS0xLjk5N1oiLz4mI3hhOyAgICA8cGF0aCBmaWxsPSJ1cmwoI3V1aWQtYTMxYzY5NWYtNThlNy00MDYxLWE0ZGItMjE3MzU2OTYzMDNkKSIgZD0iTTMwLDEyaC0xMi4wMDFjLTEuMTAzLDAtMS45OTcsLjg5NC0xLjk5OSwxLjk5OFY0OGgxNlYxNGMwLTEuMTA1LS44OTUtMi0yLTJaIi8+JiN4YTsgICAgPHBhdGggZmlsbD0idXJsKCN1dWlkLTM3OWNmMDI1LTc3ZTItNDA5OC1hNTQ3LTZmNGQyMTI3ODAyMCkiIGQ9Ik0yMCwyNEg4Yy0xLjEwNSwwLTIsLjg5NS0yLDJ2MjBjMCwxLjEwNCwuODk1LDIsMiwyaDE0VjI2YzAtMS4xMDUtLjg5NS0yLTItMloiLz4mI3hhOyAgPC9nPiYjeGE7PC9zdmc+" vertex="1" parent="1">
          <mxGeometry x="780" y="332.25" width="48" height="48" as="geometry" />
        </mxCell>
        <mxCell id="edKd6S3Bh1CEA_6oNVMS-18" value="Machine Learning with &#xa;Fabric Data Science Experience" style="shape=image;verticalLabelPosition=top;verticalAlign=bottom;imageAspect=0;aspect=fixed;image=data:image/svg+xml,PHN2ZyB4bWxucz0iaHR0cDovL3d3dy53My5vcmcvMjAwMC9zdmciIGZpbGw9Im5vbmUiIHZpZXdCb3g9IjAgMCA0OCA0OCIgaGVpZ2h0PSI0OCIgd2lkdGg9IjQ4Ij4mI3hhOzxwYXRoIGZpbGw9InVybCgjcGFpbnQwX2xpbmVhcl8zNTc0OV8xMTMzMzUpIiBkPSJNMjUuMzI3NiA0My44MzQ1QzI0LjU5NzggNDQuMTE0NCAyMy43NDc5IDQ0LjA0NDQgMjMuMDU4IDQzLjU4NDVDMjEuOTA4MSA0Mi44MjQ2IDIxLjI0ODIgNDEuMDg0OSAyMi4wMTgxIDM5LjkzNUwzMS43NDY3IDI1LjQ2NzFMNDAuNjg1NSAzNS40OTU3QzQxLjI5NTQgMzYuMTg1NiA0MS4yMzU0IDM3LjIzNTQgNDAuNTQ1NSAzNy44NDUzQzQwLjQwNTUgMzcuOTc1MyA0MC4yNDU1IDM4LjA3NTMgNDAuMDc1NSAzOC4xNDUzTDI1LjMyNzYgNDMuODM0NVoiLz4mI3hhOzxwYXRoIGZpbGw9InVybCgjcGFpbnQxX2xpbmVhcl8zNTc0OV8xMTMzMzUpIiBkPSJNMTcuNDg4NCAyNi41MTY5TDguMDE5NzcgMTIuMjY4OUM3Ljg1OTc5IDEyLjAxOSA3Ljc2OTgxIDExLjcxOSA3Ljc2OTgxIDExLjM5OTFDNy43Njk4MSAxMC40NzkyIDguNTE5NyA5LjcyOTMgOS40Mzk1NyA5LjcyOTNDOS42Njk1MyA5LjcyOTMgOS45Nzk0OSA5LjY4OTMgMTAuMTc5NSA5Ljc2OTI5TDI1LjU3NzMgMTcuMDA4M0wyNC42OTc0IDE4Ljc1OEwxNy40ODg0IDI2LjUxNjlaIi8+JiN4YTs8cGF0aCBmaWxsPSJ1cmwoI3BhaW50Ml9saW5lYXJfMzU3NDlfMTEzMzM1KSIgZD0iTTIzLjU0OCA0My44NDQzQzIzLjM3OCA0My43ODQzIDIzLjIxOCA0My42OTQzIDIzLjA1OCA0My41OTQzQzIxLjkwODIgNDIuODM0NCAyMS41OTgzIDQxLjI3NDcgMjIuMzU4MSA0MC4xMjQ4TDQwLjg1NTUgMTIuMjc4OEM0MS4wMTU1IDEyLjAyODkgNDEuMTA1NSAxMS43Mjg5IDQxLjEwNTUgMTEuNDA5QzQxLjEwNTUgMTAuNzE5IDQwLjY4NTUgMTAuMTE5MSA0MC4wNzU2IDkuODY5MTdMMjUuMzI3NyA0LjE3OTk5QzI1LjA0NzggNC4wNyAyNC43NDc4IDQuMDEwMDEgMjQuNDM3OSA0LjAxMDAxQzI0LjEyNzkgNC4wMTAwMSAyMy44Mjc5IDQuMDcgMjMuNTQ4IDQuMTY5OTlMOC44MDAwOSA5Ljg1OTE3QzkuMDAwMDYgOS43NzkxOCA5LjIyMDAyIDkuNzI5MTkgOS40NDk5OSA5LjcyOTE5QzkuNjc5OTYgOS43MjkxOSA5Ljg4OTkzIDkuNzc5MTggMTAuMDg5OSA5Ljg1OTE3TDIxLjcyODIgMTUuNDY4NEMyMi41NzgxIDE1LjkwODMgMjMuMTc4IDE2LjcyODIgMjMuMTc4IDE3LjczOEMyMy4xNzggMTguMzY4IDIyLjk0ODEgMTguOTM3OSAyMi41NTgxIDE5LjM3NzhMOC4yMDAxNyAzNS40OTU1QzcuNTkwMjYgMzYuMTg1NCA3LjY1MDI1IDM3LjIzNTMgOC4zNDAxNSAzNy44NDUyQzguNDgwMTMgMzcuOTc1MSA4LjY0MDExIDM4LjA3NTEgOC44MTAwOCAzOC4xNDUxTDIzLjU1OCA0My44MzQzIi8+JiN4YTs8cGF0aCBmaWxsPSJ1cmwoI3BhaW50M19saW5lYXJfMzU3NDlfMTEzMzM1KSIgZD0iTTEwLjEyIDkuODU5MTZMMjEuNzU4MyAxNS40Njg0QzIyLjQ0ODIgMTUuODE4MyAyMi45NTgxIDE2LjQyODIgMjMuMTM4MSAxNy4xNzgxTDQxLjEwNTUgMTEuMTQ5QzQxLjAxNTUgMTAuNTY5MSA0MC42NDU2IDEwLjA3OTEgNDAuMTE1NyA5Ljg1OTE2TDI1LjM2NzggNC4xNjk5OEMyNS4wODc4IDQuMDU5OTkgMjQuNzg3OSA0IDI0LjQ3NzkgNEMyNC4xNjc5IDQgMjMuODY4IDQuMDU5OTkgMjMuNTg4IDQuMTU5OThMOC44NDAxNCA5Ljg0OTE2QzkuMDQwMTEgOS43NjkxNyA5LjI2MDA5IDkuNzE5MTggOS40OTAwNiA5LjcxOTE4QzkuNzIwMDIgOS43MTkxOCA5LjkyOTk5IDkuNzY5MTcgMTAuMTMgOS44NDkxNkwxMC4xMiA5Ljg1OTE2WiIvPiYjeGE7PGRlZnM+JiN4YTs8bGluZWFyR3JhZGllbnQgZ3JhZGllbnRVbml0cz0idXNlclNwYWNlT25Vc2UiIHkyPSI0MS42ODQ4IiB4Mj0iMzUuOTA2MSIgeTE9IjMyLjMyNjEiIHgxPSIyNC43NTc3IiBpZD0icGFpbnQwX2xpbmVhcl8zNTc0OV8xMTMzMzUiPiYjeGE7PHN0b3Agc3RvcC1jb2xvcj0iIzI5Mjk0MSIvPiYjeGE7PHN0b3Agc3RvcC1jb2xvcj0iIzExNEE4NSIgb2Zmc2V0PSIwLjIyIi8+JiN4YTs8c3RvcCBzdG9wLWNvbG9yPSIjMEE1QkEwIiBvZmZzZXQ9IjAuNDQiLz4mI3hhOzxzdG9wIHN0b3AtY29sb3I9IiMwNjY5QjYiIG9mZnNldD0iMC42NSIvPiYjeGE7PC9saW5lYXJHcmFkaWVudD4mI3hhOzxsaW5lYXJHcmFkaWVudCBncmFkaWVudFVuaXRzPSJ1c2VyU3BhY2VPblVzZSIgeTI9IjIzLjA1NzQiIHgyPSIyMi40Mjc3IiB5MT0iNy43Njk1OCIgeDE9IjExLjcyOTIiIGlkPSJwYWludDFfbGluZWFyXzM1NzQ5XzExMzMzNSI+JiN4YTs8c3RvcCBzdG9wLWNvbG9yPSIjMTE0QTg1IiBvZmZzZXQ9IjAuMjIiLz4mI3hhOzxzdG9wIHN0b3AtY29sb3I9IiMwNjY5QjYiIG9mZnNldD0iMC44NSIvPiYjeGE7PC9saW5lYXJHcmFkaWVudD4mI3hhOzxsaW5lYXJHcmFkaWVudCBncmFkaWVudFVuaXRzPSJ1c2VyU3BhY2VPblVzZSIgeTI9IjQuMDEwMDEiIHgyPSIyNC40Mzc4IiB5MT0iNDMuODQ0MyIgeDE9IjI0LjQzNzgiIGlkPSJwYWludDJfbGluZWFyXzM1NzQ5XzExMzMzNSI+JiN4YTs8c3RvcCBzdG9wLWNvbG9yPSIjMjg4Q0Q5IiBvZmZzZXQ9IjAuMSIvPiYjeGE7PHN0b3Agc3RvcC1jb2xvcj0iIzNDQzVFRSIgb2Zmc2V0PSIwLjc1Ii8+JiN4YTs8L2xpbmVhckdyYWRpZW50PiYjeGE7PGxpbmVhckdyYWRpZW50IGdyYWRpZW50VW5pdHM9InVzZXJTcGFjZU9uVXNlIiB5Mj0iMTYuMjY4MiIgeDI9IjI2LjUxNzYiIHkxPSI0LjIzOTk3IiB4MT0iMjMuMjg4MSIgaWQ9InBhaW50M19saW5lYXJfMzU3NDlfMTEzMzM1Ij4mI3hhOzxzdG9wIHN0b3Atb3BhY2l0eT0iMC45IiBzdG9wLWNvbG9yPSIjQTFFQ0ZGIi8+JiN4YTs8c3RvcCBzdG9wLW9wYWNpdHk9IjAiIHN0b3AtY29sb3I9IiNBMUVDRkYiIG9mZnNldD0iMC45MiIvPiYjeGE7PC9saW5lYXJHcmFkaWVudD4mI3hhOzwvZGVmcz4mI3hhOzwvc3ZnPg==;labelPosition=center;align=center;" vertex="1" parent="1">
          <mxGeometry x="626" y="220" width="48" height="48" as="geometry" />
        </mxCell>
        <mxCell id="edKd6S3Bh1CEA_6oNVMS-21" value="" style="shape=image;verticalLabelPosition=bottom;verticalAlign=top;imageAspect=0;aspect=fixed;image=data:image/svg+xml,PHN2ZyB4bWxucz0iaHR0cDovL3d3dy53My5vcmcvMjAwMC9zdmciIGZpbGw9Im5vbmUiIHZpZXdCb3g9IjAgMCAzMiAzMyIgaGVpZ2h0PSIzMyIgd2lkdGg9IjMyIj4mI3hhOzxwYXRoIGZpbGw9ImJsYWNrIiBkPSJNOCA3LjkzNzU2QzggNy4xMDkxMyA4LjY3MTU3IDYuNDM3NTYgOS41IDYuNDM3NTZIMjEuNUMyMi4zMjg0IDYuNDM3NTYgMjMgNy4xMDkxMyAyMyA3LjkzNzU2VjEwLjkzNzZDMjMgMTEuNzY2IDIyLjMyODQgMTIuNDM3NiAyMS41IDEyLjQzNzZIOS41QzguNjcxNTcgMTIuNDM3NiA4IDExLjc2NiA4IDEwLjkzNzZWNy45Mzc1NlpNMTAgOC40Mzc1NlYxMC40Mzc2SDIxVjguNDM3NTZIMTBaTTQgNS42ODc1NkM0IDMuODkyNjMgNS40NTUwOCAyLjQzNzU2IDcuMjUgMi40Mzc1NkgyMy43NUMyNS41NDQ5IDIuNDM3NTYgMjcgMy44OTI2NCAyNyA1LjY4NzU2VjI3LjE4NzZDMjcgMjguOTgyNSAyNS41NDQ5IDMwLjQzNzYgMjMuNzUgMzAuNDM3Nkg3LjI1QzUuNDU1MDcgMzAuNDM3NiA0IDI4Ljk4MjUgNCAyNy4xODc2VjUuNjg3NTZaTTcuMjUgNC40Mzc1NkM2LjU1OTY0IDQuNDM3NTYgNiA0Ljk5NzIgNiA1LjY4NzU2VjI3LjE4NzZDNiAyNy44Nzc5IDYuNTU5NjQgMjguNDM3NiA3LjI1IDI4LjQzNzZIMjMuNzVDMjQuNDQwNCAyOC40Mzc2IDI1IDI3Ljg3NzkgMjUgMjcuMTg3NlY1LjY4NzU2QzI1IDQuOTk3MjEgMjQuNDQwNCA0LjQzNzU2IDIzLjc1IDQuNDM3NTZINy4yNVpNMjkuMjUgOC40Mzc1NkgyOFYxMi40Mzc2SDI5LjI1QzI5LjY2NDIgMTIuNDM3NiAzMCAxMi4xMDE4IDMwIDExLjY4NzZWOS4xODc1NkMzMCA4Ljc3MzM1IDI5LjY2NDIgOC40Mzc1NiAyOS4yNSA4LjQzNzU2Wk0yOCAxNC40Mzc2SDI5LjI1QzI5LjY2NDIgMTQuNDM3NiAzMCAxNC43NzMzIDMwIDE1LjE4NzZWMTcuNjg3NkMzMCAxOC4xMDE4IDI5LjY2NDIgMTguNDM3NiAyOS4yNSAxOC40Mzc2SDI4VjE0LjQzNzZaTTI5LjI1IDIwLjQzNzZIMjhWMjQuNDM3NkgyOS4yNUMyOS42NjQyIDI0LjQzNzYgMzAgMjQuMTAxOCAzMCAyMy42ODc2VjIxLjE4NzZDMzAgMjAuNzczMyAyOS42NjQyIDIwLjQzNzYgMjkuMjUgMjAuNDM3NloiLz4mI3hhOzwvc3ZnPg==" vertex="1" parent="1">
          <mxGeometry x="593.25" y="150" width="32" height="33" as="geometry" />
        </mxCell>
        <mxCell id="edKd6S3Bh1CEA_6oNVMS-22" value="" style="shape=image;verticalLabelPosition=bottom;verticalAlign=top;imageAspect=0;aspect=fixed;image=data:image/svg+xml,PHN2ZyB4bWxucz0iaHR0cDovL3d3dy53My5vcmcvMjAwMC9zdmciIGZpbGw9Im5vbmUiIHZpZXdCb3g9IjAgMCAzMiAzMyIgaGVpZ2h0PSIzMyIgd2lkdGg9IjMyIj4mI3hhOzxwYXRoIGZpbGw9ImJsYWNrIiBkPSJNMTkuOTk3NiA1LjM1OTQ0VjEzLjc5NzZDMTkuOTk3NiAxNC42MTEyIDIwLjI0NTcgMTUuNDA1NCAyMC43MDg4IDE2LjA3NDRMMjYuNDE4OSAyNC4zMjIzQzI3Ljg5MjggMjYuNDUxMiAyNi4zNjkxIDI5LjM1OTQgMjMuNzc5NyAyOS4zNTk0SDguMjE1NTVDNS42MjYxNiAyOS4zNTk0IDQuMTAyNCAyNi40NTEzIDUuNTc2MzEgMjQuMzIyM0wxMS4yODY0IDE2LjA3NDRDMTEuNzQ5NSAxNS40MDU0IDExLjk5NzYgMTQuNjExMiAxMS45OTc2IDEzLjc5NzZWNS4zNTk0NEgxMC45OThDMTAuNDQ1OCA1LjM1OTQ0IDkuOTk4MDUgNC45MTE3MiA5Ljk5ODA1IDQuMzU5NDRDOS45OTgwNSAzLjgwNzE1IDEwLjQ0NTggMy4zNTk0NCAxMC45OTggMy4zNTk0NEgyMC45OThDMjEuNTUwMyAzLjM1OTQ0IDIxLjk5OCAzLjgwNzE1IDIxLjk5OCA0LjM1OTQ0QzIxLjk5OCA0LjkxMTcyIDIxLjU1MDMgNS4zNTk0NCAyMC45OTggNS4zNTk0NEgxOS45OTc2Wk0xMy45OTc2IDEzLjc5NzZDMTMuOTk3NiAxNS4wMTggMTMuNjI1NCAxNi4yMDk0IDEyLjkzMDggMTcuMjEyOEwxMi4xMzY5IDE4LjM1OTRIMTkuODU4M0wxOS4wNjQ1IDE3LjIxMjhDMTguMzY5OCAxNi4yMDk0IDE3Ljk5NzYgMTUuMDE4IDE3Ljk5NzYgMTMuNzk3NlY1LjM1OTQ0SDEzLjk5NzZWMTMuNzk3NlpNMTAuNzcwNCAyMC4zMzM0TDcuMjIwNjkgMjUuNDYwN0M2LjY2NTExIDI2LjI2MzIgNy4yMzk0OCAyNy4zNTk0IDguMjE1NTUgMjcuMzU5NEgyMy43Nzk3QzI0Ljc1NTcgMjcuMzU5NCAyNS4zMzAxIDI2LjI2MzIgMjQuNzc0NSAyNS40NjA3TDIxLjIyNSAyMC4zMzM2QzIxLjE1MjEgMjAuMzUwNSAyMS4wNzYxIDIwLjM1OTQgMjAuOTk4IDIwLjM1OTRIMTAuOTk4QzEwLjkxOTcgMjAuMzU5NCAxMC44NDM1IDIwLjM1MDQgMTAuNzcwNCAyMC4zMzM0WiIvPiYjeGE7PC9zdmc+" vertex="1" parent="1">
          <mxGeometry x="634.75" y="150" width="32" height="33" as="geometry" />
        </mxCell>
        <mxCell id="edKd6S3Bh1CEA_6oNVMS-23" value="" style="shape=image;verticalLabelPosition=bottom;verticalAlign=top;imageAspect=0;aspect=fixed;image=data:image/svg+xml,PHN2ZyB4bWxucz0iaHR0cDovL3d3dy53My5vcmcvMjAwMC9zdmciIGZpbGw9Im5vbmUiIHZpZXdCb3g9IjAgMCAzMiAzMyIgaGVpZ2h0PSIzMyIgd2lkdGg9IjMyIj4mI3hhOzxwYXRoIGZpbGw9ImJsYWNrIiBkPSJNOS4zOTM2OSAxMC4yMjE4QzguODg2MDYgMTAuMDA0MiA4LjI5ODE4IDEwLjIzOTQgOC4wODA2MiAxMC43NDdDNy44NjMwNyAxMS4yNTQ3IDguMDk4MjIgMTEuODQyNSA4LjYwNTg1IDEyLjA2MDFMMTQuOTk5OCAxNC44MDAzVjIxLjE0MDlDMTQuOTk5OCAyMS42OTMyIDE1LjQ0NzUgMjIuMTQwOSAxNS45OTk4IDIyLjE0MDlDMTYuNTUyMSAyMi4xNDA5IDE2Ljk5OTggMjEuNjkzMiAxNi45OTk4IDIxLjE0MDlWMTQuODAwM0wyMy4zOTM3IDEyLjA2MDFDMjMuOTAxMyAxMS44NDI1IDI0LjEzNjUgMTEuMjU0NyAyMy45MTg5IDEwLjc0N0MyMy43MDE0IDEwLjIzOTQgMjMuMTEzNSAxMC4wMDQyIDIyLjYwNTkgMTAuMjIxOEwxNS45OTk4IDEzLjA1M0w5LjM5MzY5IDEwLjIyMThaTTE4LjE1MzkgMi44OTgwM0MxNi43Njc1IDIuMzY0OCAxNS4yMzI1IDIuMzY0OCAxMy44NDYxIDIuODk4MDNMMy45MjMwNiA2LjcxNDZDMi43NjQ0OSA3LjE2MDIgMiA4LjI3MzMyIDIgOS41MTQ2M1YyMi43Njc0QzIgMjQuMDA4OCAyLjc2NDQ5IDI1LjEyMTkgMy45MjMwNiAyNS41Njc1TDEzLjg0NjEgMjkuMzg0QzE1LjIzMjUgMjkuOTE3MyAxNi43Njc1IDI5LjkxNzMgMTguMTUzOSAyOS4zODRMMjguMDc2OSAyNS41Njc1QzI5LjIzNTUgMjUuMTIxOSAzMCAyNC4wMDg4IDMwIDIyLjc2NzRWOS41MTQ2M0MzMCA4LjI3MzMyIDI5LjIzNTUgNy4xNjAyIDI4LjA3NjkgNi43MTQ2TDE4LjE1MzkgMi44OTgwM1pNMTQuNTY0MSA0Ljc2NDczQzE1LjQ4ODQgNC40MDkyNCAxNi41MTE2IDQuNDA5MjQgMTcuNDM1OSA0Ljc2NDczTDI3LjM1OSA4LjU4MTI5QzI3Ljc0NTIgOC43Mjk4MiAyOCA5LjEwMDg2IDI4IDkuNTE0NjNWMjIuNzY3NEMyOCAyMy4xODEyIDI3Ljc0NTIgMjMuNTUyMiAyNy4zNTkgMjMuNzAwOEwxNy40MzU5IDI3LjUxNzNDMTYuNTExNiAyNy44NzI4IDE1LjQ4ODQgMjcuODcyOCAxNC41NjQxIDI3LjUxNzNMNC42NDEwMiAyMy43MDA4QzQuMjU0ODMgMjMuNTUyMiA0IDIzLjE4MTIgNCAyMi43Njc0VjkuNTE0NjNDNCA5LjEwMDg2IDQuMjU0ODMgOC43Mjk4MiA0LjY0MTAyIDguNTgxMjlMMTQuNTY0MSA0Ljc2NDczWiIvPiYjeGE7PC9zdmc+" vertex="1" parent="1">
          <mxGeometry x="674.75" y="150" width="32" height="33" as="geometry" />
        </mxCell>
      </root>
    </mxGraphModel>
  </diagram>
</mxfile>
